<?xml version="1.0" encoding="utf-8"?>
<!-- Generator: Adobe Illustrator 16.0.0, SVG Export Plug-In . SVG Version: 6.00 Build 0)  -->
<!DOCTYPE svg PUBLIC "-//W3C//DTD SVG 1.1//EN" "http://www.w3.org/Graphics/SVG/1.1/DTD/svg11.dtd">
<svg version="1.1" id="Layer_1" xmlns="http://www.w3.org/2000/svg" xmlns:xlink="http://www.w3.org/1999/xlink" x="0px" y="0px"
	 width="563.396px" height="436.231px" viewBox="31.104 88.762 563.396 436.231"
	 enable-background="new 31.104 88.762 563.396 436.231" xml:space="preserve">
<g id="Layer_2_1_">
</g>
<g id="Layer_1_1_">
	<g id="Layer_2">
	</g>
	<g>
		<rect x="335.182" y="419.688" fill="#212121" width="8.339" height="8.342"/>
		<rect x="326.785" y="428.028" fill="#212121" width="8.34" height="8.339"/>
		<rect x="310.106" y="444.707" fill="#212121" width="8.339" height="8.339"/>
		<rect x="301.767" y="436.423" fill="#212121" width="8.339" height="8.34"/>
		<rect x="318.502" y="436.423" fill="#212121" width="8.34" height="8.34"/>
		<rect x="285.088" y="419.688" fill="#212121" width="8.339" height="8.342"/>
		<rect x="318.502" y="386.331" fill="#212121" width="8.34" height="8.339"/>
		<rect x="326.785" y="394.613" fill="#212121" width="8.34" height="8.34"/>
		<rect x="335.182" y="403.01" fill="#212121" width="8.339" height="8.34"/>
		<rect x="343.464" y="411.293" fill="#212121" width="8.34" height="8.339"/>
		<rect x="318.502" y="403.01" fill="#212121" width="8.34" height="8.34"/>
		<rect x="318.502" y="419.688" fill="#212121" width="8.34" height="8.342"/>
		<rect x="301.767" y="419.688" fill="#212121" width="8.339" height="8.342"/>
		<rect x="310.106" y="428.028" fill="#212121" width="8.339" height="8.339"/>
		<rect x="310.106" y="411.293" fill="#212121" width="8.339" height="8.339"/>
		<rect x="301.767" y="386.331" fill="#212121" width="8.339" height="8.339"/>
		<rect x="310.106" y="394.613" fill="#212121" width="8.339" height="8.34"/>
		<rect x="301.767" y="403.01" fill="#212121" width="8.339" height="8.34"/>
		<rect x="293.372" y="411.293" fill="#212121" width="8.338" height="8.339"/>
		<rect x="326.785" y="411.293" fill="#212121" width="8.34" height="8.339"/>
		<rect x="293.372" y="428.028" fill="#212121" width="8.338" height="8.339"/>
		<rect x="318.502" y="453.102" fill="#212121" width="8.34" height="8.342"/>
		<rect x="326.785" y="444.707" fill="#212121" width="8.34" height="8.339"/>
		<rect x="276.749" y="428.028" fill="#212121" width="8.34" height="8.339"/>
		<rect x="276.749" y="411.293" fill="#212121" width="8.34" height="8.339"/>
		<rect x="293.372" y="444.707" fill="#212121" width="8.338" height="8.339"/>
		<rect x="335.182" y="436.423" fill="#212121" width="8.339" height="8.34"/>
		<rect x="301.767" y="453.102" fill="#212121" width="8.339" height="8.342"/>
		<rect x="285.088" y="436.423" fill="#212121" width="8.339" height="8.34"/>
		<path fill="#212121" d="M331.688,367.962v-3.889h-34.767v3.889h-34.766v111.792H366.51V367.962H331.688z M358.734,428.028
			c-0.283,2.873-0.789,5.635-1.58,8.339h-5.296v8.342h1.915c-0.562,1.126-1.239,2.197-1.915,3.322v-3.322h-8.34v8.339h4.508
			c-1.407,1.634-2.931,3.155-4.508,4.509v-4.509h-8.339v8.339h3.322c-1.071,0.733-2.141,1.297-3.322,1.916v-1.916h-8.342v5.297
			c-2.648,0.789-5.466,1.296-8.339,1.579v-6.876h-8.342v6.876c-2.873-0.283-5.634-0.788-8.339-1.579v-5.297h-8.34v1.916
			c-1.127-0.562-2.198-1.239-3.325-1.916h3.325v-8.339h-8.34v4.509c-1.634-1.408-3.155-2.932-4.508-4.509h4.508v-8.339h-8.622v3.322
			c-0.732-1.071-1.353-2.141-1.916-3.322h1.916v-8.342h-5.296c-0.79-2.648-1.353-5.466-1.578-8.339h6.874v-8.342h-6.874
			c0.282-2.871,0.788-5.634,1.578-8.339h5.296v-8.34h-1.916c0.563-1.129,1.24-2.199,1.916-3.325v3.325h8.34v-8.341h-4.508
			c1.409-1.633,2.93-3.156,4.508-4.508v4.508h8.339v-8.34h-3.324c1.071-0.732,2.142-1.296,3.324-1.916v1.916h8.34v-5.297
			c2.649-0.789,5.466-1.296,8.339-1.577v6.874h8.34v-7.044c2.873,0.283,5.635,0.79,8.341,1.578v5.297h8.34v-1.915
			c1.129,0.563,2.197,1.241,3.325,1.915h-3.325v8.342h8.341v-4.509c1.633,1.409,3.156,2.933,4.508,4.509h-4.508v8.339h8.34v-3.21
			c0.732,1.068,1.352,2.14,1.916,3.322h-1.916v8.342h5.297c0.788,2.647,1.295,5.466,1.577,8.339h-6.874v8.34h7.154v0.058
			L358.734,428.028L358.734,428.028z"/>
		<rect x="285.088" y="403.01" fill="#212121" width="8.339" height="8.34"/>
		<rect x="343.464" y="428.028" fill="#212121" width="8.34" height="8.339"/>
		<rect x="293.372" y="394.613" fill="#212121" width="8.338" height="8.34"/>
		<polygon fill="#212121" points="333.096,332.35 330.166,332.35 330.166,361.368 309.712,361.368 323.066,332.35 295.568,332.35 
			295.568,362.102 333.096,362.102 		"/>
	</g>
	<path fill="none" d="M491.545,161.641c-0.171,0.056-0.396,0.112-0.622,0.169c1.016,3.663,9.638,4.17,12.622,4.17
		c2.986,0,11.607-0.507,12.622-4.17c-0.169-0.057-0.396-0.113-0.62-0.169h-3.889h-4.338H491.545z"/>
	<path fill="none" d="M539.439,185.025c-4.676-13.637-13.974-20.004-22.145-22.822c10.03,5.354,23.554,12.849,21.131,47.727
		c-13.977,24.399-28.456,27.159-34.769,27.159c-6.367,0-20.849-2.819-34.766-27.159c-2.423-34.936,11.1-42.373,21.129-47.727
		c-8.228,2.874-17.468,9.13-22.144,22.822c-6.987,20.397,7.324,50.092,19.834,64.799c0.563,0.619,1.916,1.239,2.817,1.239h26.314
		c0.901,0,2.197-0.62,2.817-1.239C532.114,235.118,546.427,205.423,539.439,185.025z"/>
	<path fill="#212121" d="M540.961,184.517c-5.24-15.383-16.172-21.749-25.074-24.398v-21.412h0.62c0.788,0,1.409-0.62,1.409-1.409
		c0-0.789-0.621-1.408-1.409-1.408h-25.582c-0.787,0-1.407,0.62-1.407,1.408c0,0.789,0.62,1.409,1.407,1.409h0.621v21.412
		c-8.959,2.648-19.834,9.015-25.074,24.398c-3.155,9.298-2.311,22.766,2.424,37.979c4.112,13.241,10.931,26.372,17.692,34.43
		c0.846,1.014,2.592,1.803,3.943,1.803h26.373c1.407,0,3.098-0.789,3.942-1.803c6.764-8.001,13.579-21.189,17.694-34.43
		C543.271,207.338,544.116,193.815,540.961,184.517z M511.717,138.707v22.934h3.944c0.171,0.056,0.395,0.112,0.62,0.169
		c-1.015,3.663-9.636,4.17-12.622,4.17c-2.985,0-11.606-0.507-12.622-4.17c0.171-0.057,0.396-0.113,0.62-0.169h15.779v-22.934
		H511.717L511.717,138.707z M519.605,249.825c-0.563,0.619-1.916,1.239-2.817,1.239h-26.427c-0.902,0-2.2-0.62-2.819-1.239
		c-12.509-14.709-26.821-44.404-19.834-64.799c4.677-13.637,13.974-20.004,22.144-22.822c-10.029,5.354-23.551,12.849-21.127,47.727
		c13.974,24.399,28.452,27.159,34.766,27.159c6.367,0,20.849-2.819,34.767-27.159c2.423-34.936-11.101-42.373-21.131-47.727
		c8.229,2.874,17.47,9.13,22.146,22.822C546.427,205.423,532.114,235.118,519.605,249.825z"/>
	<path d="M517.126,162.204c0,0-0.627-0.338-0.845-0.394h-0.191"/>
	<g>
		<path fill="none" d="M526.986,385.475c-7.241-4.043-14.401-5.572-18.816-6.206h-8.977c-4.416,0.578-11.605,2.165-18.82,6.206
			c-15.556,8.63-23.956,24.072-25.024,45.833c-1.011,21.13,8.515,34.522,14.345,40.528c5.63,5.887,10.68,8.255,11.834,8.255
			c7.103,0-4.878-3.407,22.168-3.407c26.7,0,15.038,3.407,22.168,3.407c1.154,0,6.205-2.368,11.835-8.255
			c5.773-6.092,15.296-19.396,14.346-40.528C550.944,409.575,542.545,394.191,526.986,385.475z M503.694,469.814
			c-39.774,0.376-43.729-35.675-43.408-42.573c1.934-40.84,27.968-44.103,43.408-44.103c15.501,0,41.507,3.263,43.412,44.103
			C547.423,434.14,543.439,470.19,503.694,469.814z"/>
		<polygon fill="none" points="498.441,374.333 492.929,374.333 492.929,368.185 495.41,368.185 495.41,354.359 511.95,354.359 
			511.95,368.185 514.432,368.185 514.432,374.333 508.918,374.333 508.918,376.267 529.499,376.267 529.499,352.627 
			476.736,352.627 476.736,376.267 498.441,376.267 		"/>
		<path fill="#212121" d="M554.266,431.194c-1.357-28.171-14.98-41.506-26.182-47.77c-6.406-3.578-12.671-5.252-17.232-6.09h20.927
			v-25.833h-56.14v25.861h20.925c-4.618,0.838-10.879,2.569-17.23,6.092c-11.2,6.263-24.852,19.598-26.179,47.768
			c-1.013,22.024,8.888,35.937,14.921,42.257c5.369,5.627,11.084,9.034,13.509,9.034c7.158,0,22.169,0.059,22.169,0.059l0,0
			c0,0,14.979-0.059,22.165-0.059c2.425,0,8.141-3.405,13.509-9.034C545.373,467.129,555.361,453.219,554.266,431.194z
			 M476.736,352.627h52.763v23.553h-20.493v-1.934h5.456v-6.147h-2.513V354.27h-16.511v13.829h-2.511v6.147h5.455v1.934h-21.647
			L476.736,352.627L476.736,352.627z M537.695,471.865c-5.628,5.889-10.681,8.256-11.835,8.256c-7.102,0,4.618-3.407-22.168-3.407
			c-27.017,0-15.038,3.407-22.167,3.407c-1.154,0-6.203-2.367-11.835-8.256c-5.773-6.09-15.298-19.396-14.345-40.525
			c1.011-21.765,9.468-37.148,25.025-45.837c7.245-4.04,14.405-5.57,18.819-6.203h8.977c4.416,0.577,11.604,2.165,18.817,6.203
			c15.559,8.631,23.958,24.073,25.027,45.837C552.993,452.468,543.439,465.86,537.695,471.865z"/>
		<path fill="#212121" d="M503.694,383.107c-15.499,0-41.505,3.263-43.408,44.105c-0.32,6.925,3.634,42.978,43.408,42.57
			c39.774,0.376,43.729-35.675,43.412-42.57C545.174,386.399,519.166,383.107,503.694,383.107z"/>
	</g>
	<path fill="none" d="M166.285,175.538h-87.44c-2.563,0-4.647,2.086-4.647,4.648v55.809c0,2.562,2.085,2.581,4.647,2.581h87.44
		c2.563,0,4.647-4.15,4.647-6.713v-51.677C170.932,177.624,168.847,175.538,166.285,175.538z M166.629,227.693
		c0,2.852-2.312,5.162-5.163,5.162H83.321c-2.853,0-5.164-2.312-5.164-5.162v-49.917h88.473L166.629,227.693L166.629,227.693z"/>
	<path fill="#212121" d="M166.285,174.505h-15.147V127.17H93.992v47.335H78.845c-3.132,0-5.68,2.55-5.68,5.681v55.809
		c0,3.131,2.548,5.68,5.68,5.68h87.44c3.131,0,5.68-2.549,5.68-5.68v-55.809C171.964,177.056,169.416,174.505,166.285,174.505z
		 M144.94,128.622v46.399h-11.016v-46.399H144.94z M122.566,128.622h3.786v46.399h-3.786V128.622z M170.932,231.864
		c0,2.563-2.085,6.713-4.647,6.713h-87.44c-2.563,0-4.647-0.019-4.647-2.581v-55.81c0-2.563,2.085-4.647,4.647-4.647h87.44
		c2.563,0,4.647,2.085,4.647,4.647V231.864z"/>
	<path fill="#212121" d="M78.157,227.693c0,2.852,2.312,5.162,5.164,5.162h78.145c2.851,0,5.163-2.312,5.163-5.162v-49.917H78.157
		V227.693z"/>
	<g>
		<path fill="none" d="M121.859,333.759c1.758-1.688,2.975-3.633,2.972-5.623c0-7.006-9.719-10.927-13.924-10.927
			c-4.205,0-8.145,1.175-11.095,3.309c-2.847,2.061-4.415,4.767-4.415,7.618c0,2.005,0.778,3.936,2.229,5.623h13.282H121.859
			L121.859,333.759z"/>
		<path d="M121.493,377.31c-0.087-0.442-0.172-0.884-0.254-1.324h-20.666c-0.082,0.441-0.167,0.881-0.254,1.324H121.493
			L121.493,377.31z"/>
		<path d="M121.941,379.512c0.008,0.032,0.015,0.066,0.021,0.1c-0.101-0.477-0.2-0.949-0.295-1.422h-21.522
			c-0.094,0.464-0.19,0.93-0.289,1.396c0.005-0.025,0.011-0.05,0.017-0.074H121.941z"/>
		<path d="M120.841,373.783h-19.87c-0.077,0.438-0.155,0.88-0.236,1.321h20.34C120.997,374.663,120.918,374.222,120.841,373.783z"/>
		<path d="M120.475,371.58h-19.138c-0.07,0.44-0.142,0.879-0.216,1.323h19.571C120.618,372.459,120.544,372.019,120.475,371.58z"/>
		<path d="M125.717,393.612H96.096c-0.147,0.44-0.297,0.882-0.449,1.321h30.52C126.015,394.494,125.865,394.054,125.717,393.612z"/>
		<path d="M126.477,395.815H95.336c-0.158,0.441-0.317,0.883-0.481,1.323h32.103C126.794,396.698,126.634,396.257,126.477,395.815z"
			/>
		<path d="M124.95,391.214c0.021,0.065,0.04,0.133,0.06,0.195H96.802c0.019-0.058,0.037-0.118,0.055-0.177
			c-0.153,0.501-0.311,1-0.472,1.5h29.044C125.266,392.226,125.107,391.722,124.95,391.214z"/>
		<path d="M122.627,382.596H99.187c-0.103,0.44-0.209,0.88-0.317,1.322h24.075C122.836,383.478,122.729,383.036,122.627,382.596z"/>
		<path d="M122.43,381.734c-0.103-0.448-0.203-0.896-0.299-1.341H99.683c-0.096,0.44-0.193,0.88-0.294,1.323h23.038
			C122.427,381.721,122.428,381.728,122.43,381.734z"/>
		<path d="M123.501,386.121c0.051,0.2,0.104,0.397,0.157,0.596c-0.171-0.64-0.337-1.277-0.498-1.915H98.65
			c-0.146,0.581-0.297,1.163-0.452,1.745c0.038-0.142,0.076-0.283,0.113-0.426H123.501z"/>
		<path d="M123.735,387.003H98.077c-0.316,1.174-0.652,2.352-1.004,3.524h27.668C124.387,389.353,124.052,388.177,123.735,387.003z
			 M97.713,388.324h26.386c0.083,0.294,0.167,0.587,0.251,0.881H97.461C97.546,388.911,97.631,388.618,97.713,388.324z"/>
		<path d="M103.612,345.041c0-0.122-0.007-0.248-0.02-0.377C103.604,344.795,103.612,344.921,103.612,345.041z"/>
		<path d="M118.282,348.764c-0.017-0.526-0.031-1.019-0.043-1.478c0.001,0.021,0.001,0.038,0.002,0.059h-14.667
			c-0.01,0.412-0.022,0.854-0.038,1.322h14.744C118.28,348.699,118.281,348.732,118.282,348.764z"/>
		<path d="M118.223,346.528c-0.011-0.562-0.018-1.061-0.021-1.485c0,0.03,0,0.066,0,0.1H103.61
			c-0.004,0.386-0.009,0.829-0.019,1.324h14.63C118.222,346.484,118.223,346.51,118.223,346.528z"/>
		<path fill="#212121" d="M118.281,344.262c-0.007,0.042-0.011,0.082-0.019,0.123c0.146-0.876,0.551-1.888,1.024-2.498l6.321-8.127
			h-0.071c1.235-1.676,1.937-3.589,1.937-5.623c0-6.618-7.417-11.986-16.567-11.986c-9.15,0-16.567,5.366-16.567,11.986
			c0,2.034,0.703,3.947,1.937,5.623h-0.072l6.322,8.127c0.478,0.615,0.885,1.642,1.027,2.525c-0.007-0.05-0.012-0.097-0.022-0.15
			H118.281L118.281,344.262z M95.396,328.135c0-2.853,1.568-5.558,4.415-7.618c2.951-2.132,6.891-3.309,11.095-3.309
			c4.205,0,13.924,3.921,13.924,10.927c0.003,1.99-1.214,3.937-2.972,5.625h-10.952H97.625
			C96.175,332.072,95.396,330.14,95.396,328.135z"/>
		<path d="M118.222,344.664c-0.014,0.13-0.02,0.255-0.02,0.377C118.201,344.921,118.208,344.794,118.222,344.664z"/>
		<path d="M118.368,350.901c-0.023-0.498-0.043-0.978-0.06-1.435c0.001,0.027,0.001,0.054,0.002,0.083h-14.809
			c-0.016,0.422-0.034,0.863-0.056,1.323h14.92C118.367,350.881,118.367,350.893,118.368,350.901z"/>
		<path d="M118.481,353.074c0.004,0.084,0.01,0.173,0.015,0.258c-0.035-0.583-0.066-1.146-0.092-1.686
			c0.002,0.036,0.002,0.07,0.005,0.105h-15.005c0-0.017,0.001-0.029,0.001-0.047c-0.023,0.459-0.05,0.937-0.077,1.427
			c0.001-0.021,0.002-0.041,0.002-0.059L118.481,353.074L118.481,353.074z"/>
		<path fill="#212121" d="M130.367,405.148c-0.784-1.611-1.516-3.259-2.203-4.928H93.648c-0.687,1.669-1.418,3.316-2.202,4.928
			c-13.251,27.24-11.634,37.544-11.634,49.178c0,11.637,6.874,28.557,11.898,32.786c4.495,2.114,19.197,2.644,19.197,2.644
			s14.702-0.529,19.197-2.644c5.024-4.231,11.898-21.151,11.898-32.786C142.001,442.692,143.619,432.39,130.367,405.148z
			 M96.875,402.345h28.063c1.603,0,2.903,1.3,2.903,2.904c0,1.602-1.3,2.903-2.903,2.903H96.875c-1.604,0-2.903-1.302-2.903-2.903
			C93.971,403.645,95.271,402.345,96.875,402.345z M140.622,450.921c-0.015,1.112-1.479,13.626-4.006,20.313
			c-2.27,6.012-4.757,7.253-7.281,8.861c-3.338,2.13-14.439,2.287-18.429,2.434c-3.989-0.145-15.091-0.303-18.429-2.434
			c-2.523-1.608-5.011-2.85-7.281-8.861c-2.525-6.688-3.99-19.199-4.005-20.313c-0.133-9.706-0.271-19.738,9.722-41.361H130.9
			C140.893,431.184,140.754,441.214,140.622,450.921z"/>
		<path d="M127.29,398.018H94.522c-0.169,0.44-0.342,0.883-0.518,1.322h33.802C127.631,398.9,127.459,398.459,127.29,398.018z"/>
		<path d="M118.686,356.158h-15.559c-0.032,0.435-0.066,0.874-0.103,1.324h15.764C118.752,357.032,118.717,356.591,118.686,356.158z
			"/>
		<path d="M118.621,355.277c0.005,0.07,0.012,0.146,0.017,0.217c-0.042-0.591-0.08-1.166-0.115-1.722
			c0.004,0.062,0.007,0.122,0.012,0.183h-15.255c0-0.013,0.001-0.024,0.001-0.037c-0.028,0.449-0.058,0.907-0.091,1.379
			c0-0.007,0.001-0.012,0.001-0.02H118.621L118.621,355.277z"/>
		<path d="M119.533,364.842c0.005,0.042,0.01,0.086,0.016,0.129h-17.284c-0.053,0.439-0.107,0.877-0.164,1.323h17.613
			C119.651,365.804,119.59,365.321,119.533,364.842z"/>
		<path d="M120.137,369.377h-18.461c-0.063,0.438-0.131,0.88-0.2,1.322h18.862C120.269,370.257,120.202,369.814,120.137,369.377z"/>
		<path d="M120.012,368.496c0.009,0.069,0.021,0.14,0.03,0.21c-0.076-0.524-0.147-1.048-0.216-1.563
			c0.001,0.011,0.002,0.019,0.004,0.031h-17.845c-0.064,0.473-0.13,0.945-0.198,1.427c0.005-0.035,0.01-0.07,0.015-0.104
			L120.012,368.496L120.012,368.496z"/>
		<path d="M119.443,364.089c0.001,0.014,0.002,0.028,0.005,0.043c-0.055-0.46-0.105-0.914-0.154-1.362H102.52
			c-0.048,0.439-0.098,0.883-0.15,1.33c0-0.003,0.001-0.007,0.001-0.011H119.443L119.443,364.089z"/>
		<path d="M118.994,359.814c-0.048-0.512-0.093-1.015-0.134-1.509c0,0.021,0.002,0.035,0.003,0.056H102.95
			c-0.038,0.434-0.077,0.874-0.119,1.322h16.149C118.984,359.727,118.99,359.771,118.994,359.814z"/>
		<path d="M119.2,361.901c-0.047-0.451-0.092-0.897-0.135-1.337h-16.316c0.001-0.013,0.002-0.021,0.003-0.035
			c-0.043,0.446-0.09,0.901-0.137,1.359H119.2C119.2,361.892,119.2,361.897,119.2,361.901z"/>
		<path fill="#212121" d="M123.337,413.15H91.044c-8.694,19.449-8.568,28.733-8.445,37.724l0.001,0.101
			c0.016,1.096,1.463,12.875,3.773,18.993c1.695,4.488,3.223,5.448,5.337,6.777l0.519,0.326c1.468,0.938,6.647,1.554,15.396,1.831
			c0.406,0.013,0.776,0.025,1.103,0.036c0.327-0.011,0.697-0.023,1.103-0.036c8.749-0.279,13.929-0.896,15.397-1.832l0.519-0.326
			c2.113-1.329,3.641-2.29,5.335-6.777c2.311-6.118,3.757-17.896,3.773-18.995l0.001-0.101c0.118-8.541,0.238-17.354-7.214-34.901
			C126.978,414.406,125.036,413.15,123.337,413.15z"/>
		<path fill="#FFFFFF" d="M118.202,345.041c-0.001-0.122,0.006-0.249,0.019-0.377c0.01-0.092,0.025-0.186,0.041-0.279
			c0.008-0.043,0.011-0.083,0.019-0.125h-14.75c0.011,0.054,0.015,0.101,0.022,0.15c0.015,0.085,0.029,0.173,0.039,0.253
			c0.013,0.13,0.02,0.254,0.019,0.376c-0.001,0.031-0.001,0.067-0.001,0.101l0,0h14.592
			C118.202,345.109,118.202,345.073,118.202,345.041z"/>
		<path fill="#FFFFFF" d="M118.238,347.288c-0.005-0.266-0.012-0.518-0.017-0.76c0-0.019-0.001-0.044-0.001-0.062h-14.629h-0.001
			c-0.005,0.277-0.011,0.57-0.02,0.881l0,0h14.669C118.24,347.326,118.24,347.309,118.238,347.288z"/>
		<path fill="#FFFFFF" d="M118.308,349.467c-0.009-0.241-0.018-0.475-0.026-0.703c-0.001-0.031-0.002-0.064-0.003-0.097h-14.744l0,0
			c-0.01,0.286-0.02,0.578-0.033,0.883l0,0h14.809C118.31,349.521,118.309,349.494,118.308,349.467z"/>
		<path fill="#FFFFFF" d="M118.409,351.752c-0.002-0.035-0.002-0.069-0.005-0.105c-0.012-0.252-0.026-0.502-0.036-0.746
			c0-0.01,0-0.02-0.001-0.029h-14.919l0,0c-0.012,0.271-0.025,0.552-0.04,0.834c0,0.018-0.002,0.03-0.002,0.046L118.409,351.752
			L118.409,351.752z"/>
		<path fill="#FFFFFF" d="M118.534,353.955c-0.005-0.061-0.008-0.121-0.012-0.183c-0.009-0.149-0.018-0.296-0.026-0.44
			c-0.005-0.087-0.01-0.174-0.015-0.258h-15.149c0,0.019-0.001,0.039-0.002,0.058c-0.015,0.257-0.032,0.52-0.048,0.786
			c0,0.013-0.001,0.024-0.001,0.037H118.534L118.534,353.955z"/>
		<path fill="#FFFFFF" d="M118.686,356.158c-0.018-0.223-0.033-0.442-0.048-0.664c-0.005-0.07-0.011-0.146-0.017-0.217H103.19
			c0,0.01-0.001,0.015-0.001,0.02c-0.02,0.282-0.04,0.571-0.063,0.861l0,0H118.686L118.686,356.158z"/>
		<path fill="#FFFFFF" d="M118.858,358.308c-0.025-0.278-0.048-0.555-0.07-0.825l0,0h-15.764l0,0
			c-0.023,0.289-0.048,0.584-0.074,0.881l0,0h15.912C118.862,358.343,118.859,358.326,118.858,358.308z"/>
		<path fill="#FFFFFF" d="M119.065,360.564L119.065,360.564c-0.023-0.25-0.047-0.502-0.071-0.748
			c-0.004-0.044-0.009-0.09-0.012-0.133h-16.149l0,0c-0.025,0.281-0.053,0.562-0.08,0.846c0,0.014-0.002,0.022-0.003,0.035H119.065
			L119.065,360.564z"/>
		<path fill="#FFFFFF" d="M119.293,362.768c-0.033-0.289-0.063-0.58-0.093-0.866c0-0.004,0-0.01-0.001-0.015h-16.584l0,0
			c-0.031,0.29-0.062,0.585-0.095,0.881l0,0H119.293L119.293,362.768z"/>
		<path fill="#FFFFFF" d="M119.533,364.842c-0.03-0.237-0.057-0.477-0.085-0.71c-0.002-0.015-0.004-0.029-0.005-0.043H102.37
			c0,0.004-0.001,0.008-0.001,0.011c-0.034,0.289-0.069,0.58-0.104,0.871l0,0h17.283
			C119.542,364.928,119.539,364.884,119.533,364.842z"/>
		<path fill="#FFFFFF" d="M119.825,367.143c-0.038-0.286-0.075-0.568-0.112-0.852l0,0H102.1l0,0
			c-0.039,0.292-0.077,0.587-0.115,0.883l0,0h17.844C119.827,367.163,119.826,367.153,119.825,367.143z"/>
		<path fill="#FFFFFF" d="M120.138,369.377c-0.034-0.224-0.065-0.447-0.096-0.672c-0.01-0.069-0.02-0.14-0.03-0.21h-18.21
			c-0.005,0.034-0.01,0.069-0.016,0.104c-0.037,0.256-0.073,0.516-0.111,0.776l0,0L120.138,369.377L120.138,369.377z"/>
		<path fill="#FFFFFF" d="M120.476,371.58c-0.047-0.293-0.093-0.588-0.138-0.881l0,0h-18.863l0,0
			c-0.044,0.293-0.091,0.588-0.138,0.881l0,0H120.476L120.476,371.58z"/>
		<path fill="#FFFFFF" d="M120.842,373.783c-0.052-0.295-0.101-0.59-0.15-0.882l0,0h-19.571l0,0
			c-0.049,0.292-0.098,0.587-0.15,0.882h0.001H120.842L120.842,373.783z"/>
		<path fill="#FFFFFF" d="M121.239,375.986c-0.055-0.292-0.11-0.588-0.163-0.882l0,0h-20.34l0,0
			c-0.053,0.294-0.107,0.59-0.162,0.882l0,0H121.239L121.239,375.986z"/>
		<path fill="#FFFFFF" d="M121.668,378.189c-0.059-0.293-0.117-0.588-0.174-0.88l0,0H100.32l0,0c-0.057,0.29-0.115,0.586-0.175,0.88
			l0,0H121.668L121.668,378.189z"/>
		<path fill="#FFFFFF" d="M122.13,380.394c-0.057-0.261-0.112-0.521-0.168-0.782c-0.007-0.033-0.014-0.067-0.021-0.1h-22.07
			c-0.006,0.024-0.011,0.049-0.017,0.074c-0.056,0.269-0.114,0.537-0.173,0.808l0,0H122.13L122.13,380.394z"/>
		<path fill="#FFFFFF" d="M122.627,382.596c-0.067-0.288-0.133-0.575-0.197-0.863c-0.002-0.007-0.003-0.013-0.004-0.02H99.388l0,0
			c-0.067,0.293-0.134,0.588-0.202,0.881l0,0h23.442V382.596z"/>
		<path fill="#FFFFFF" d="M123.162,384.8c-0.074-0.294-0.146-0.589-0.217-0.882l0,0H98.869l0,0
			c-0.072,0.293-0.144,0.588-0.218,0.882l0,0H123.162L123.162,384.8z"/>
		<path fill="#FFFFFF" d="M123.735,387.003c-0.026-0.096-0.05-0.192-0.077-0.288c-0.053-0.197-0.106-0.396-0.157-0.595h-25.19
			c-0.037,0.142-0.076,0.284-0.113,0.425c-0.041,0.151-0.08,0.304-0.122,0.456l0,0L123.735,387.003L123.735,387.003z"/>
		<path fill="#FFFFFF" d="M124.1,388.324H97.713c-0.083,0.294-0.167,0.587-0.252,0.881h26.89
			C124.266,388.911,124.182,388.618,124.1,388.324z"/>
		<path fill="#FFFFFF" d="M125.01,391.409c-0.02-0.063-0.04-0.13-0.06-0.195c-0.071-0.229-0.141-0.457-0.21-0.687l0,0H97.072l0,0
			c-0.071,0.234-0.144,0.469-0.216,0.705c-0.018,0.059-0.036,0.119-0.055,0.177H125.01L125.01,391.409z"/>
		<path fill="#FFFFFF" d="M125.718,393.612c-0.098-0.294-0.195-0.59-0.289-0.881l0,0H96.385l0,0
			c-0.096,0.291-0.192,0.587-0.29,0.881h0.001H125.718L125.718,393.612z"/>
		<path fill="#FFFFFF" d="M126.477,395.815c-0.105-0.294-0.209-0.588-0.31-0.882l0,0H95.646l0,0
			c-0.101,0.294-0.206,0.588-0.31,0.882l0,0H126.477L126.477,395.815z"/>
		<path fill="#FFFFFF" d="M127.29,398.018c-0.113-0.292-0.224-0.589-0.333-0.881l0,0H94.855l0,0
			c-0.108,0.292-0.221,0.589-0.332,0.881l0,0H127.29L127.29,398.018z"/>
		<path fill="#FFFFFF" d="M128.165,400.221c-0.121-0.292-0.24-0.587-0.357-0.881l0,0H94.005l0,0
			c-0.117,0.294-0.236,0.589-0.358,0.881l0,0H128.165L128.165,400.221z"/>
	</g>
	<path fill="#212121" d="M312.134,133.324h-17.822v16.634h17.822V133.324z M296.45,143.718c-0.69,0-1.248-1.072-1.248-2.394
		c0-1.323,0.558-2.396,1.248-2.396c0.689,0,1.248,1.073,1.248,2.396C297.697,142.646,297.139,143.718,296.45,143.718z"/>
	<polygon fill="#212121" points="318.786,173.837 319.499,169.738 318.786,165.639 315.936,165.639 315.936,151.619 
		291.698,151.619 291.698,165.639 287.659,165.639 286.945,169.738 287.659,173.837 	"/>
	<path fill="#212121" d="M396.846,169.294c-6.957-13.888-24.557-22.023-38.096-26.403c-14.198-4.593-29.138-6.819-37.805-7.051
		v-1.374h-8.111v8.928h8.111v-1.332c17.673,0.466,59.913,9.212,70.338,30.018c4.503,8.991,2.586,19.645-5.689,31.701
		c-10.122-6.558-26.078-2.618-37.094,9.66c-11.874,13.234-13.503,31.133-3.644,39.979c9.861,8.846,27.479,5.29,39.352-7.945
		c10.822-12.061,13.13-27.994,5.988-37.422C400.3,193.698,402.541,180.667,396.846,169.294z"/>
	<path fill="#212121" d="M257.125,241.262c-0.688,0-1.248-0.558-1.248-1.246v-53.583c0-0.689,0.56-1.247,1.248-1.247h6.119v-2.556
		c0-0.688,0.56-1.248,1.248-1.248h12.06v-2.791c0-0.688,0.56-1.248,1.248-1.248h13.9v3.267h-7.214c-1.103,0-1.995,0.894-1.995,1.996
		c0,1.103-10.195,1.996-10.195,1.996c-1.869,0-3.385,1.514-3.385,3.383c0,1.87-4.647,4.471-4.647,4.471
		c-1.37,0.151-2.45,1.389-2.412,2.766l1.049,37.547c0.039,1.378,1.187,2.494,2.565,2.494h39.513h0.171h32.014
		c0.322-7.627,3.74-16.003,10.066-23.056c0.194-0.216,0.394-0.423,0.592-0.634l0.456-16.348c0.038-1.377-1.04-2.617-2.411-2.767
		c0,0-4.648-2.601-4.648-4.472c0-1.868-1.515-3.382-3.383-3.382c0,0-10.195-0.894-10.195-1.996s-0.893-1.996-1.995-1.996h-9.704
		v-3.268h15.563c0.688,0,1.246,0.56,1.246,1.248v2.791h12.062c0.688,0,1.246,0.56,1.246,1.248v2.555h6.12
		c0.688,0,1.246,0.559,1.246,1.247v20.101c0.354-0.266,0.71-0.526,1.069-0.778v-19.323c0-1.278-1.04-2.317-2.317-2.317h-5.049
		v-1.485c0-1.278-1.04-2.316-2.316-2.316h-10.992v-1.723c0-1.278-1.038-2.318-2.317-2.318h-15.563v-1.781h-24.237v1.781h-13.9
		c-1.277,0-2.316,1.04-2.316,2.318v1.723h-10.991c-1.277,0-2.316,1.039-2.316,2.316v1.485h-5.049c-1.276,0-2.316,1.039-2.316,2.317
		v58.929c0,1.28,1.04,2.318,2.316,2.318h82.822c-1.124-1.951-1.905-4.112-2.354-6.416h-80.469L257.125,241.262L257.125,241.262z"/>
</g>
</svg>
