<?xml version="1.0" encoding="utf-8"?>
<!-- Generator: Adobe Illustrator 16.0.0, SVG Export Plug-In . SVG Version: 6.00 Build 0)  -->
<!DOCTYPE svg PUBLIC "-//W3C//DTD SVG 1.1//EN" "http://www.w3.org/Graphics/SVG/1.1/DTD/svg11.dtd">
<svg version="1.1" id="Layer_1" xmlns="http://www.w3.org/2000/svg" xmlns:xlink="http://www.w3.org/1999/xlink" x="0px" y="0px"
	 width="563.396px" height="436.231px" viewBox="31.104 88.762 563.396 436.231"
	 enable-background="new 31.104 88.762 563.396 436.231" xml:space="preserve">
<g id="Layer_2_1_">
</g>
<g>
	<path fill="none" d="M362.021,240.87c-15.361-8.567-30.54-11.812-39.902-13.158h-19.034c-9.363,1.224-24.603,4.591-39.901,13.158
		c-32.987,18.3-50.795,51.042-53.061,97.188c-2.143,44.799,18.054,73.194,30.417,85.923c11.934,12.484,22.644,17.503,25.092,17.503
		c15.056,0-10.343-7.222,47.001-7.222c56.61,0,31.886,7.222,47.001,7.222c2.449,0,13.159-5.019,25.093-17.503
		c12.24-12.911,32.437-41.126,30.417-85.923C412.816,291.971,395.007,259.354,362.021,240.87z M312.632,419.695
		c-84.333,0.799-92.718-75.643-92.044-90.268c4.1-86.599,59.303-93.515,92.044-93.515c32.863,0,88.005,6.916,92.045,93.515
		C405.35,344.053,396.903,420.492,312.632,419.695z"/>
	<polygon fill="none" points="301.494,217.247 289.805,217.247 289.805,204.212 295.068,204.212 295.068,174.896 330.136,174.896 
		330.136,204.212 335.398,204.212 335.398,217.247 323.707,217.247 323.707,221.347 367.345,221.347 367.345,171.225 
		255.472,171.225 255.472,221.347 301.494,221.347 	"/>
	<path fill="#212121" d="M419.855,337.811c-2.877-59.73-31.763-88.004-55.509-101.285c-13.586-7.589-26.867-11.138-36.536-12.913
		h44.369v-54.774H253.146v54.834h44.37c-9.792,1.775-23.072,5.447-36.537,12.913c-23.746,13.281-52.693,41.555-55.509,101.285
		c-2.143,46.695,18.849,76.194,31.641,89.597c11.383,11.936,23.5,19.155,28.642,19.155c15.178,0,47.002,0.123,47.002,0.123l0,0
		c0,0,31.763-0.123,47.001-0.123c5.141,0,17.26-7.222,28.642-19.155C401.005,414.005,422.18,384.508,419.855,337.811z
		 M255.472,171.225h111.873v49.939h-43.452v-4.1h11.567v-13.036h-5.325v-29.314h-35.007v29.314h-5.323v13.036h11.566v4.1h-45.899
		L255.472,171.225L255.472,171.225z M384.725,424.043c-11.933,12.482-22.644,17.502-25.093,17.502c-15.055,0,9.793-7.223-47-7.223
		c-57.284,0-31.886,7.223-47.002,7.223c-2.448,0-13.158-5.02-25.092-17.502c-12.24-12.912-32.436-41.128-30.417-85.925
		c2.143-46.145,20.074-78.766,53.061-97.187c15.361-8.567,30.539-11.812,39.901-13.158h19.034
		c9.362,1.224,24.603,4.59,39.901,13.158c32.985,18.3,50.796,51.042,53.061,97.187C417.162,382.915,396.903,411.313,384.725,424.043
		z"/>
	<path fill="#212121" d="M312.632,235.852c-32.864,0-88.005,6.916-92.044,93.514c-0.672,14.687,7.711,91.128,92.044,90.271
		c84.334,0.796,92.718-75.643,92.045-90.271C400.576,242.829,345.436,235.852,312.632,235.852z"/>
</g>
</svg>
