<?xml version="1.0" encoding="utf-8"?>
<!-- Generator: Adobe Illustrator 16.0.0, SVG Export Plug-In . SVG Version: 6.00 Build 0)  -->
<!DOCTYPE svg PUBLIC "-//W3C//DTD SVG 1.1//EN" "http://www.w3.org/Graphics/SVG/1.1/DTD/svg11.dtd">
<svg version="1.1" id="Layer_1" xmlns="http://www.w3.org/2000/svg" xmlns:xlink="http://www.w3.org/1999/xlink" x="0px" y="0px"
	 width="563.396px" height="436.231px" viewBox="31.104 88.762 563.396 436.231"
	 enable-background="new 31.104 88.762 563.396 436.231" xml:space="preserve">
<g id="Layer_2_1_">
</g>
<g>
	<path fill="none" d="M156.584,256.825c-10.031-5.6-20.005-7.758-26.129-8.633h-12.424c-6.125,0.816-16.098,3.034-26.13,8.633
		c-21.58,12.015-33.246,33.42-34.762,63.632c-1.4,29.337,11.84,47.944,19.889,56.284c7.815,8.165,14.873,11.49,16.449,11.49
		c9.857,0-6.767-4.723,30.737-4.723c37.095,0,20.88,4.723,30.737,4.723c1.576,0,8.633-3.266,16.448-11.49
		c7.99-8.456,21.23-26.945,19.889-56.284C189.83,290.244,178.165,268.956,156.584,256.825z M124.214,373.94
		c-55.176,0.528-60.717-49.517-60.25-59.14c2.683-56.692,38.845-61.242,60.25-61.242c21.522,0,57.625,4.551,60.25,61.242
		C184.93,324.422,179.447,374.466,124.214,373.94z"/>
	<polygon fill="none" points="116.923,241.368 109.283,241.368 109.283,232.853 112.782,232.853 112.782,213.664 135.705,213.664 
		135.705,232.853 139.145,232.853 139.145,241.368 131.505,241.368 131.505,244.051 160.026,244.051 160.026,211.214 86.77,211.214 
		86.77,244.051 116.923,244.051 	"/>
	<path fill="#212121" d="M194.438,320.341c-1.866-39.137-20.822-57.626-36.335-66.316c-8.867-4.958-17.614-7.291-23.914-8.457
		h29.046v-35.929H85.312v35.929h29.046c-6.416,1.167-15.107,3.558-23.914,8.457c-15.572,8.69-34.47,27.18-36.335,66.316
		c-1.4,30.561,12.365,49.866,20.705,58.673c7.465,7.816,15.397,12.541,18.78,12.541c9.973,0,30.737,0.115,30.737,0.115l0,0
		c0,0,20.822-0.115,30.737-0.115c3.384,0,11.315-4.724,18.782-12.541C182.072,370.208,195.954,350.903,194.438,320.341z
		 M86.77,211.214h73.256v32.72h-28.463v-2.683h7.583v-8.515h-3.441v-19.189h-22.922v19.189h-3.441v8.515h7.583v2.683H86.885v-32.72
		H86.77z M171.399,376.74c-7.815,8.165-14.873,11.491-16.448,11.491c-9.857,0,6.416-4.725-30.737-4.725
		c-37.503,0-20.881,4.725-30.737,4.725c-1.576,0-8.632-3.267-16.449-11.491c-7.99-8.457-21.23-26.946-19.889-56.284
		c1.4-30.212,13.182-51.559,34.762-63.633c10.032-5.599,20.005-7.757,26.13-8.633h12.423c6.124,0.816,16.098,3.034,26.129,8.633
		c21.58,12.014,33.246,33.42,34.761,63.633C192.688,349.853,179.447,368.4,171.399,376.74z"/>
	<path fill="#212121" d="M124.214,253.558c-21.522,0-57.625,4.551-60.25,61.242c-0.468,9.624,5.074,59.666,60.25,59.14
		c55.234,0.528,60.717-49.517,60.25-59.14C181.839,258.108,145.736,253.558,124.214,253.558z"/>
</g>
<g>
	<path fill="#212121" d="M311.088,228.946v12.248h30.796v-12.248c6.533-0.292,10.849-2.217,10.849-9.974
		c0-13.006-11.78-23.447-26.247-23.447c-14.463,0-26.245,10.44-26.245,23.447C300.24,226.787,304.554,228.652,311.088,228.946z"/>
	<path fill="#212121" d="M384.111,266.04c-0.116-2.042-1.867-4.025-3.909-4.491c-29.629-6.183-40.244-13.823-40.244-13.823v-5.599
		h-13.357h-13.356v5.599c0,0-10.674,7.582-40.245,13.823c-2.042,0.466-3.85,2.449-3.909,4.491
		c-1.691,32.137,10.848,84.688,37.62,102.651c1.05,0.761,2.683,1.285,4.315,1.575c-1.516,0.758-2.508,2.217-2.508,4.024
		c0,2.448,1.983,4.491,4.49,4.491c-2.041,0-13.064,6.534-13.064,8.574c0,2.041,1.691,3.732,3.733,3.732h46.137
		c2.041,0,3.732-1.691,3.732-3.732c0-2.04-10.908-8.574-13.065-8.574c2.449,0,4.49-1.984,4.49-4.491c0-1.749-1.05-3.385-2.507-4.024
		c1.574-0.349,3.149-0.934,4.316-1.575C373.32,350.728,385.745,298.177,384.111,266.04z M337.742,367.992h-22.338
		c-1.69,0-4.316-0.76-5.424-1.517c-11.606-7.757-21.638-23.623-28.463-44.619c-5.891-18.198-8.865-39.019-8.05-55.759
		c0-0.817,0.933-1.866,1.866-2.042c29.805-6.24,40.827-13.939,41.294-14.174l1.109-0.758h17.848l1.106,0.758
		c0.468,0.292,11.491,7.933,41.295,14.174c0.816,0.175,1.75,1.225,1.866,2.042c0.817,16.623-2.158,37.445-8.048,55.759
		c-6.824,21.113-16.914,36.979-28.462,44.619C342,367.351,339.376,367.992,337.742,367.992z"/>
	<path fill="#212121" d="M360.431,264.523h-33.888h-33.887c0,0-41.818,26.421,15.69,86.495c0.758,0.759,1.69,0.935,2.158,0.35
		c0.466-0.582,1.517-0.35,2.333,0.118c2.218,1.283,6.826,3.439,13.706,3.439c6.882,0,11.49-2.041,13.707-3.439
		c0.815-0.583,1.866-0.644,2.333-0.118c0.465,0.585,1.399,0.35,2.157-0.35C402.251,290.943,360.431,264.523,360.431,264.523z"/>
</g>
<g>
	<path fill="none" d="M489.797,235.711c-0.292,0.058-0.584,0.233-0.992,0.291c1.633,5.949,15.688,6.766,20.591,6.766
		c4.899,0,18.895-0.817,20.589-6.766c-0.293-0.058-0.585-0.233-0.993-0.291h-6.298h-7.173H489.797z"/>
	<path fill="none" d="M567.777,273.68c-7.583-22.221-22.747-32.486-36.044-37.152c16.271,8.691,38.379,20.88,34.41,77.69
		c-22.746,39.72-46.311,44.21-56.634,44.21c-10.382,0-33.944-4.608-56.635-44.21c-3.965-56.81,18.083-69,34.412-77.69
		c-13.357,4.667-28.461,14.873-36.044,37.152c-11.314,33.188,11.957,81.538,32.312,105.51c0.875,1.051,3.091,2.042,4.607,2.042
		h42.811c1.517,0,3.616-0.991,4.608-2.042C555.879,355.218,579.15,306.867,567.777,273.68z"/>
	<path fill="#212121" d="M570.168,272.863c-8.574-25.08-26.304-35.461-40.827-39.719v-34.819h0.992c1.282,0,2.331-1.05,2.331-2.333
		c0-1.282-1.05-2.333-2.331-2.333h-41.587c-1.285,0-2.332,1.051-2.332,2.333c0,1.285,1.049,2.333,2.332,2.333h0.991v34.819
		c-14.582,4.258-32.312,14.698-40.828,39.719c-5.19,15.165-3.733,37.095,3.909,61.767c6.707,21.522,17.788,42.929,28.811,55.992
		c1.343,1.634,4.199,2.917,6.474,2.917h42.87c2.274,0,5.017-1.283,6.475-2.917c11.023-13.005,22.047-34.47,28.813-55.992
		C573.961,310.017,575.36,288.028,570.168,272.863z M522.692,198.325v37.329h6.357c0.292,0.058,0.584,0.232,0.992,0.291
		c-1.634,5.949-15.691,6.766-20.59,6.766c-4.9,0-18.898-0.817-20.591-6.766c0.292-0.06,0.584-0.233,0.991-0.291h25.664v-37.329
		H522.692L522.692,198.325z M535.523,379.189c-0.877,1.051-3.091,2.042-4.609,2.042H487.87c-1.516,0-3.616-0.991-4.607-2.042
		c-20.355-23.972-43.626-72.324-32.312-105.51c7.582-22.221,22.747-32.486,36.045-37.152c-16.272,8.691-38.378,20.88-34.412,77.69
		c22.748,39.72,46.311,44.21,56.634,44.21c10.383,0,33.946-4.608,56.635-44.21c3.965-56.81-18.081-69-34.412-77.69
		c13.356,4.667,28.463,14.873,36.045,37.152C579.15,306.867,555.879,355.218,535.523,379.189z"/>
</g>
</svg>
